<?xml version="1.0" standalone="no"?>
<!DOCTYPE svg PUBLIC "-//W3C//DTD SVG 20010904//EN"
 "http://www.w3.org/TR/2001/REC-SVG-20010904/DTD/svg10.dtd">
<svg version="1.0" xmlns="http://www.w3.org/2000/svg"
 width="1024.000000pt" height="1024.000000pt" viewBox="0 0 1024.000000 1024.000000"
 preserveAspectRatio="xMidYMid meet">

<g transform="translate(0.000000,1024.000000) scale(0.100000,-0.100000)"
fill="#000000" stroke="none">
<path d="M4885 8330 c-317 -27 -621 -94 -920 -204 -154 -57 -466 -216 -606
-308 -198 -131 -331 -240 -509 -418 -190 -189 -293 -314 -430 -521 -225 -341
-387 -739 -464 -1137 -46 -240 -51 -302 -50 -627 1 -336 12 -457 69 -711 132
-588 452 -1153 893 -1575 535 -513 1135 -808 1842 -904 165 -22 515 -30 685
-16 608 53 1160 265 1649 633 622 468 1056 1129 1221 1858 97 428 102 936 14
1375 -232 1152 -1097 2093 -2234 2429 -355 105 -813 154 -1160 126z m635 -604
c1080 -168 1939 -960 2176 -2007 42 -186 55 -299 61 -520 7 -249 -4 -385 -48
-602 -233 -1152 -1191 -2001 -2379 -2107 -910 -81 -1816 343 -2362 1105 -302
422 -468 913 -485 1440 -24 744 245 1428 766 1945 425 422 956 676 1581 756
142 18 547 12 690 -10z"/>
<path d="M6455 6521 c-16 -10 -428 -418 -915 -905 -486 -487 -891 -886 -898
-886 -7 0 -197 182 -420 404 -224 223 -420 410 -435 415 -44 17 -99 13 -135
-9 -49 -30 -291 -280 -308 -317 -19 -43 -17 -80 5 -128 23 -50 1192 -1219
1234 -1234 39 -15 92 -14 130 3 27 12 1215 1195 1984 1976 210 214 222 227
228 271 11 76 -14 116 -171 271 -77 75 -152 141 -167 147 -43 17 -99 13 -132
-8z"/>
</g>
</svg>
