<?xml version="1.0" standalone="no"?>
<!DOCTYPE svg PUBLIC "-//W3C//DTD SVG 20010904//EN"
 "http://www.w3.org/TR/2001/REC-SVG-20010904/DTD/svg10.dtd">
<svg version="1.0" xmlns="http://www.w3.org/2000/svg"
 width="1024.000000pt" height="1024.000000pt" viewBox="0 0 1024.000000 1024.000000"
 preserveAspectRatio="xMidYMid meet">

<g transform="translate(0.000000,1024.000000) scale(0.100000,-0.100000)"
fill="#000000" stroke="none">
<path d="M2685 8121 c-48 -22 -69 -44 -90 -95 -15 -35 -16 -189 -9 -1677 l7
-1639 61 34 c34 19 250 125 481 236 231 112 493 238 583 281 l162 79 0 1325
c0 1170 -2 1330 -15 1362 -21 50 -42 72 -90 94 -37 17 -76 19 -545 19 -469 0
-508 -2 -545 -19z"/>
<path d="M4165 8121 c-22 -10 -51 -31 -65 -46 l-25 -27 -7 -491 c-4 -271 -7
-860 -5 -1310 l2 -817 445 213 c245 118 466 219 492 225 73 18 165 14 256 -12
l82 -24 0 1077 c0 595 -4 1093 -9 1114 -5 22 -19 49 -30 61 -45 48 -63 50
-596 53 -467 2 -503 1 -540 -16z"/>
<path d="M5655 8126 c-49 -21 -91 -70 -105 -123 -16 -55 -19 -33 125 -848 46
-258 129 -731 185 -1050 56 -319 103 -580 104 -581 0 0 273 -133 606 -294 333
-161 659 -319 725 -351 65 -32 120 -57 122 -56 3 3 -81 485 -351 2027 -85 487
-167 952 -181 1034 -29 169 -46 204 -119 237 -38 17 -74 19 -561 18 -409 0
-526 -3 -550 -13z"/>
<path d="M5010 5661 c-30 -10 -158 -69 -285 -131 -331 -162 -1279 -621 -1709
-828 -202 -97 -381 -189 -396 -203 -40 -36 -57 -98 -41 -149 6 -22 21 -48 32
-59 11 -10 185 -96 387 -191 202 -95 509 -240 682 -323 1397 -663 1360 -647
1451 -647 66 0 146 34 559 235 722 352 1295 623 1373 651 28 10 44 11 58 4 18
-10 19 -25 19 -298 0 -158 3 -377 6 -487 l6 -200 -42 -25 c-67 -40 -120 -132
-120 -211 0 -51 31 -128 66 -166 43 -45 44 -31 -36 -316 -51 -177 -53 -189
-36 -205 15 -15 39 -17 244 -13 281 4 316 8 320 38 4 25 -30 142 -95 330 l-46
133 35 39 c47 51 61 98 56 181 -4 83 -37 138 -110 185 l-47 30 0 296 c-1 163
-4 411 -8 552 l-6 257 126 60 c132 63 162 88 200 167 26 54 16 78 -50 128 -53
39 -99 62 -978 488 -335 163 -635 309 -665 326 -105 57 -726 349 -765 360 -57
16 -121 13 -185 -8z"/>
<path d="M2582 3638 c3 -512 2 -504 81 -556 l41 -27 330 0 331 0 3 325 2 326
-282 133 c-156 74 -334 160 -396 193 l-113 59 3 -453z"/>
<path d="M7545 4029 c-9 -13 -7 -807 1 -821 7 -11 84 1 111 18 55 35 65 112
30 249 -8 33 -22 101 -31 150 -25 136 -87 399 -96 408 -4 5 -11 3 -15 -4z"/>
<path d="M6892 3720 l-32 -20 2 -282 3 -283 35 0 35 0 3 303 c1 166 -1 302 -5
302 -5 0 -23 -9 -41 -20z"/>
<path d="M3558 3236 c-4 -288 -2 -396 8 -444 63 -304 472 -561 1039 -652 879
-141 1804 113 2021 555 19 38 38 94 44 123 10 53 2 792 -9 792 -7 0 -734 -347
-1058 -505 -342 -167 -350 -170 -483 -169 -138 1 -141 2 -780 309 -283 136
-574 276 -646 310 l-131 63 -5 -382z"/>
</g>
</svg>
