<?xml version="1.0" standalone="no"?>
<!DOCTYPE svg PUBLIC "-//W3C//DTD SVG 20010904//EN"
 "http://www.w3.org/TR/2001/REC-SVG-20010904/DTD/svg10.dtd">
<svg version="1.0" xmlns="http://www.w3.org/2000/svg"
 width="1024.000000pt" height="1024.000000pt" viewBox="0 0 1024.000000 1024.000000"
 preserveAspectRatio="xMidYMid meet">

<g transform="translate(0.000000,1024.000000) scale(0.100000,-0.100000)"
fill="#000000" stroke="none">
<path d="M2410 7618 c-19 -13 -43 -39 -52 -58 -17 -33 -18 -146 -18 -1933 0
-2101 -5 -1941 63 -1989 28 -20 51 -23 276 -34 296 -15 403 -26 626 -64 683
-115 1250 -366 1603 -709 l72 -71 -2 1963 -3 1962 -32 65 c-96 195 -364 406
-718 568 -424 193 -975 307 -1535 319 l-245 5 -35 -24z"/>
<path d="M7290 7629 c-961 -83 -1783 -445 -1998 -878 l-37 -75 -3 -1963 -2
-1963 96 95 c226 225 574 421 969 548 416 133 799 195 1300 212 206 7 226 13
263 85 l22 44 0 1891 c0 1821 -1 1891 -19 1931 -11 24 -33 50 -53 62 -33 21
-47 22 -239 21 -112 -1 -247 -5 -299 -10z"/>
<path d="M1891 7038 c-28 -14 -51 -36 -63 -58 -17 -34 -18 -110 -16 -1930 l3
-1895 23 -33 c48 -67 45 -66 487 -73 388 -7 584 -19 845 -55 496 -66 1005
-194 1454 -364 88 -33 161 -58 163 -56 3 2 -42 51 -99 108 -328 332 -904 559
-1643 648 -196 23 -267 29 -510 40 -240 11 -278 21 -355 98 -98 99 -89 -82
-92 1872 l-3 1715 -75 3 c-62 2 -83 -1 -119 -20z"/>
<path d="M8150 5347 c0 -1547 -2 -1718 -16 -1761 -21 -62 -101 -148 -168 -181
-51 -25 -67 -27 -332 -41 -595 -30 -1030 -116 -1459 -286 -255 -101 -529 -282
-664 -437 -54 -62 -62 -78 -33 -62 10 5 104 41 209 80 531 194 1047 310 1658
372 61 6 304 14 541 17 l431 7 40 27 c80 53 73 -131 73 1986 l0 1889 -23 34
c-34 52 -78 69 -174 69 l-83 0 0 -1713z"/>
</g>
</svg>
